<?xml version="1.0" encoding="UTF-8"?>
<svg id="Layer_1" data-name="Layer 1" xmlns="http://www.w3.org/2000/svg" viewBox="0 0 12 3.59">
  <defs>
    <style>
      .cls-1 {
        fill: #1dbf73;
      }
    </style>
  </defs>
  <path class="cls-1" d="m11.5,3.59c.27,0,.5-.22.5-.5s-.22-.5-.5-.5-.5.22-.5.5.22.5.5.5h0m-.5-1.85h-.43c-.27,0-.42.2-.42.55v1.23h-.81v-1.78h-.34c-.27,0-.42.2-.42.55v1.23h-.8V1.08h.8v.37c.13-.29.31-.37.58-.37h.99v.37c.13-.29.31-.37.58-.37h.26v.66Zm-3.39.75h-1.68c.04.27.22.43.5.43.22,0,.37-.09.41-.24l.71.2c-.18.42-.61.68-1.13.68-.87,0-1.27-.68-1.27-1.26s.35-1.25,1.22-1.25c.93,0,1.24.69,1.24,1.2,0,.11,0,.18-.01.24h0Zm-.78-.47c-.02-.21-.17-.41-.44-.41-.25,0-.41.11-.45.41h.9Zm-3.08,1.5h.71l.88-2.44h-.81l-.43,1.42-.44-1.42h-.81l.89,2.44h0ZM.45,3.51h.8v-1.78h.76v1.78h.8V1.08h-1.56v-.15c0-.17.12-.27.3-.27h.46v-.66h-.59C.84,0,.45.36.45.88v.2h-.45v.66h.45v1.78H.45Z"/>
</svg>